<svg width="60" height="60" viewBox="0 0 60 60" fill="none" xmlns="http://www.w3.org/2000/svg">
<path d="M10 46.8757L16.7812 3.56317C16.875 2.87567 17.5312 2.40692 18.2187 2.53192C18.5937 2.59442 18.9375 2.84442 19.125 3.18817L26.125 16.2507L28.9062 10.9382C29.2188 10.3132 29.9687 10.0944 30.5937 10.4069C30.8125 10.5319 31 10.7194 31.125 10.9382L50 46.8757H10Z" fill="#FFA000"></path>
<path d="M33.4062 30L26.125 16.2188L10 46.875L33.4062 30Z" fill="#F57C00"></path>
<path d="M50 46.8739L44.8125 14.7802C44.6875 14.0927 44.0625 13.6552 43.375 13.7489C43.125 13.7802 42.875 13.9052 42.6875 14.0927L10 46.8739L28.0937 57.0302C29.2187 57.6552 30.625 57.6552 31.75 57.0302L50 46.8739Z" fill="#FFCA28"></path>
<path d="M44.8438 14.8122C44.7188 14.1247 44.0938 13.6872 43.4062 13.781C43.1562 13.8122 42.9062 13.9372 42.7188 14.1247L36.2188 20.6247L31.125 10.906C30.8125 10.281 30.0625 10.0622 29.4375 10.3747C29.2188 10.4997 29.0313 10.6872 28.9063 10.906L26.125 16.2185L19.125 3.15596C18.8125 2.56221 18.0312 2.31221 17.4375 2.65596C17.0938 2.84346 16.8438 3.18721 16.7813 3.56221L10 46.8747H9.96875L10 46.906L10.1875 46.9997L36.2188 20.9372L42.7188 14.4372C43.2188 13.9372 44 13.9372 44.5 14.4372C44.6875 14.6247 44.8125 14.8435 44.8438 15.1247L49.9688 46.906L50.0312 46.8747L44.8438 14.8122ZM10.0625 46.8122L16.7813 3.87471C16.875 3.18721 17.5313 2.71846 18.2188 2.84346C18.5938 2.90596 18.9375 3.15596 19.125 3.49971L26.125 16.5622L28.9063 11.2497C29.2188 10.6247 29.9688 10.406 30.5938 10.7185C30.8125 10.8435 31 11.031 31.125 11.2497L36.125 20.7497L10.0625 46.8122Z" fill="white" fill-opacity="0.2"></path>
<path opacity="0.2" d="M31.75 56.7187C30.625 57.3437 29.2187 57.3437 28.0937 56.7187L10.0312 46.5938L10 46.875L28.0937 57.0312C29.2187 57.6562 30.625 57.6562 31.75 57.0312L50 46.875L49.9688 46.5938L31.75 56.7187Z" fill="#A52714"></path>
<path d="M44.8438 14.8122C44.7188 14.1247 44.0938 13.6872 43.4062 13.781C43.1562 13.8122 42.9062 13.9372 42.7188 14.1247L36.2187 20.6247L31.125 10.906C30.8125 10.281 30.0625 10.0622 29.4375 10.3747C29.2188 10.4997 29.0312 10.6872 28.9062 10.906L26.125 16.2185L19.125 3.15596C18.8125 2.56221 18.0312 2.31221 17.4375 2.65596C17.0937 2.84346 16.8437 3.18721 16.7812 3.56221L10 46.8747L28.0937 57.031C29.2187 57.656 30.625 57.656 31.75 57.031L50 46.8747L44.8438 14.8122Z" fill="url(#svg-product-firebase-1JOD0YO)"></path>
<defs>
<linearGradient id="svg-product-firebase-1JOD0YO" x1="8.92305" y1="12.1786" x2="50.7002" y2="53.9559" gradientUnits="userSpaceOnUse">
<stop stop-color="white" stop-opacity="0.1"></stop>
<stop offset="1" stop-color="white" stop-opacity="0"></stop>
</linearGradient>
</defs>
</svg>
