<svg width="60" height="60" viewBox="0 0 60 60" fill="none" xmlns="http://www.w3.org/2000/svg">
<g clip-path="url(#svg-product-web-xOBnk5S)">
<path d="M29.4966 42.6313L21.6788 55.3068L8.2349 45.8958L18.1806 33.6557L3.85156 29.5981L8.94657 14.3131L22.8897 19.8755L21.8487 4.00977H38.4473L37.4595 19.748L50.3262 14.4087L56.0302 29.5698L41.3684 33.6982L50.7936 45.7931L37.7746 55.3139L29.4966 42.6313Z" fill="white"></path>
<path d="M35.2437 7.01912L34.1532 24.379L48.6062 18.3811L52.0618 27.562L36.2422 32.0162L46.5136 45.1945L38.5613 51.0118L29.4264 37.0156L20.7907 51.0118L12.6118 45.2866L23.4002 32.0091L7.70447 27.562L10.7955 18.2926L26.208 24.4392L25.0643 7.01912H35.2437ZM41.6523 1H35.2437H25.0643H18.638L19.0594 7.41213L19.5763 15.3113L13.0225 12.6983L7.09902 10.3367L5.08084 16.3877L1.99339 25.6571L0 31.6338L6.06161 33.351L12.9624 35.3054L7.93816 41.4874L3.85932 46.5045L9.15968 50.2152L17.3386 55.9404L22.5646 59.5979L25.9141 54.1701L29.568 48.2465L33.5194 54.3011L36.9893 59.6191L42.1126 55.8696L50.0649 50.0523L55.0749 46.3877L51.2617 41.4945L46.4959 35.3798L53.6905 33.3545L60 31.5771L57.6915 25.4412L54.2358 16.2602L52.0477 10.4359L46.2976 12.8223L40.7671 15.1201L41.2522 7.39797L41.6523 1Z" fill="#1A73E8"></path>
</g>
<defs>
<clipPath id="svg-product-web-xOBnk5S">
<rect width="60" height="58.6191" fill="white" transform="translate(0 1)"></rect>
</clipPath>
</defs>
</svg>
